<?xml version="1.0" encoding="iso-8859-1"?>
<!-- Generator: Adobe Illustrator 19.0.0, SVG Export Plug-In . SVG Version: 6.00 Build 0)  -->
<svg fill="#fff" version="1.1" id="Layer_1" xmlns="http://www.w3.org/2000/svg" xmlns:xlink="http://www.w3.org/1999/xlink" x="0px" y="0px"
	 viewBox="0 0 512 512" style="enable-background:new 0 0 512 512;" xml:space="preserve">
<g transform="translate(1 1)">
	<g>
		<g>
			<path d="M442.733,16.067H331.8C331.8,6.68,324.12-1,314.733-1H195.267C185.88-1,178.2,6.68,178.2,16.067H67.267
				c-14.507,0-25.6,11.093-25.6,25.6V485.4c0,14.507,11.093,25.6,25.6,25.6h375.467c14.507,0,25.6-11.093,25.6-25.6V41.667
				C468.333,27.16,457.24,16.067,442.733,16.067z M195.267,84.333h119.467c9.387,0,17.067-7.68,17.067-17.067h85.333V459.8H92.867
				V67.267H178.2C178.2,76.653,185.88,84.333,195.267,84.333z M195.267,16.067h119.467V24.6v34.133v8.533H195.267v-8.533V24.6
				V16.067z M451.267,485.4c0,5.12-3.413,8.533-8.533,8.533H67.267c-5.12,0-8.533-3.413-8.533-8.533V41.667
				c0-5.12,3.413-8.533,8.533-8.533H178.2V50.2H92.867C83.48,50.2,75.8,57.88,75.8,67.267V459.8c0,9.387,7.68,17.067,17.067,17.067
				h324.267c9.387,0,17.067-7.68,17.067-17.067V67.267c0-9.387-7.68-17.067-17.067-17.067H331.8V33.133h110.933
				c5.12,0,8.533,3.413,8.533,8.533V485.4z"/>
			<path d="M388.12,333.507c-4.267-3.413-9.387-1.707-11.947,1.707l-35.457,49.64l-9.769-14.654c-2.56-4.267-7.68-5.12-11.947-2.56
				s-5.12,7.68-2.56,11.947l16.203,24.305c0.628,1.177,1.517,2.212,2.57,3.002c0.704,0.352,1.407,0.7,2.111,0.992
				c0.53,0.238,1.075,0.419,1.628,0.541c0.053,0.012,0.106,0.025,0.16,0.036c0.146,0.029,0.291,0.055,0.437,0.074
				c0.261,0.037,0.523,0.063,0.784,0.063c1.174,0,2.345-0.192,3.437-0.634c0.561-0.124,1.122-0.219,1.683-0.219
				c2.222-1.333,3.509-3.363,3.88-5.603l40.493-56.691C393.24,341.187,391.533,336.067,388.12,333.507z"/>
			<path d="M140.653,177.347c-12.8,0-22.187,10.24-22.187,22.187v33.28c0,12.8,9.387,22.187,22.187,22.187h13.034
				c3.814,14.679,17.216,25.6,33.046,25.6s29.232-10.921,33.046-25.6h70.442c3.814,14.679,17.216,25.6,33.046,25.6
				c15.83,0,29.232-10.921,33.046-25.6h13.034c12.8,0,22.187-9.387,23.04-22.187v-33.28c0-12.8-10.24-22.187-22.187-22.187h-17.564
				L319,130.413c-5.12-7.68-13.653-11.947-23.04-11.947h-81.92c-9.387,0-17.92,4.267-23.04,11.947l-33.636,46.933H140.653z
				 M186.733,263.533c-9.387,0-17.067-7.68-17.067-17.067s7.68-17.067,17.067-17.067s17.067,7.68,17.067,17.067
				S196.12,263.533,186.733,263.533z M323.267,263.533c-9.387,0-17.067-7.68-17.067-17.067s7.68-17.067,17.067-17.067
				s17.067,7.68,17.067,17.067S332.653,263.533,323.267,263.533z M375.32,199.533v33.28c0,2.56-2.56,5.12-5.12,5.12h-13.653
				c-4.267-14.507-15.36-25.6-31.573-25.6c-0.311,0-0.62,0.012-0.929,0.02c-0.259-0.006-0.517-0.02-0.778-0.02
				c-15.829,0-29.232,10.921-33.046,25.6h-69.354c-4.267-14.507-17.067-25.6-33.28-25.6c-0.156,0-0.309,0.008-0.464,0.01
				c-0.13-0.001-0.258-0.01-0.389-0.01c-15.829,0-29.232,10.921-33.046,25.6h-13.034c-2.56,0-5.12-2.56-5.12-5.12v-33.28
				c0-2.56,2.56-5.12,5.12-5.12h20.48h187.733H370.2C372.76,194.413,375.32,196.973,375.32,199.533z M304.493,138.947l27.307,38.4
				h-68.267V134.68h31.573C299.373,134.68,302.787,136.387,304.493,138.947z M203.8,138.947c2.56-2.56,5.973-4.267,9.387-4.267
				h33.28v42.667h-69.12L203.8,138.947z"/>
			<path d="M255,323.267H127c-5.12,0-8.533,3.413-8.533,8.533c0,5.12,3.413,8.533,8.533,8.533h128c5.12,0,8.533-3.413,8.533-8.533
				C263.533,326.68,260.12,323.267,255,323.267z"/>
			<path d="M255,365.933H127c-5.12,0-8.533,3.413-8.533,8.533S121.88,383,127,383h128c5.12,0,8.533-3.413,8.533-8.533
				S260.12,365.933,255,365.933z"/>
			<path d="M255,408.6H127c-5.12,0-8.533,3.413-8.533,8.533s3.413,8.533,8.533,8.533h128c5.12,0,8.533-3.413,8.533-8.533
				S260.12,408.6,255,408.6z"/>
		</g>
	</g>
</g>
<g>
</g>
<g>
</g>
<g>
</g>
<g>
</g>
<g>
</g>
<g>
</g>
<g>
</g>
<g>
</g>
<g>
</g>
<g>
</g>
<g>
</g>
<g>
</g>
<g>
</g>
<g>
</g>
<g>
</g>
</svg>
