<?xml version="1.0" encoding="iso-8859-1"?>
<!-- Generator: Adobe Illustrator 19.0.0, SVG Export Plug-In . SVG Version: 6.00 Build 0)  -->
<svg version="1.1" fill="#fff" id="Layer_1" xmlns="http://www.w3.org/2000/svg" xmlns:xlink="http://www.w3.org/1999/xlink" x="0px" y="0px"
	 viewBox="0 0 512 512" style="enable-background:new 0 0 512 512;" xml:space="preserve">
<g>
	<g>
		<path d="M507,90.333L472.866,56.2c-6.666-6.666-17.467-6.666-24.133,0l-34.133,34.133c-3.199,3.199-4.999,7.539-4.999,12.066v51.2
			h-34.133v-51.2c0-4.527-1.8-8.867-5.001-12.066L336.333,56.2c-6.666-6.666-17.467-6.666-24.133,0l-34.133,34.133
			c-3.199,3.199-4.999,7.539-4.999,12.066v51.2h-34.133v-51.2c0-4.527-1.8-8.867-5.001-12.066L199.799,56.2
			c-6.666-6.666-17.467-6.666-24.133,0l-34.133,34.133c-3.199,3.199-4.999,7.539-4.999,12.066v51.2H102.4v-51.2
			c0-4.527-1.8-8.867-5.001-12.066L63.266,56.2c-6.666-6.666-17.467-6.666-24.133,0L4.999,90.333C1.8,93.533,0,97.872,0,102.4
			v341.333c0,9.428,7.639,17.067,17.067,17.067h68.267c9.428,0,17.067-7.639,17.067-17.067v-51.2h34.133v51.2
			c0,9.428,7.639,17.067,17.067,17.067h68.267c9.428,0,17.067-7.639,17.067-17.067v-51.2h34.133v51.2
			c0,9.428,7.639,17.067,17.067,17.067H358.4c9.428,0,17.067-7.639,17.067-17.067v-51.2H409.6v51.2
			c0,9.428,7.639,17.067,17.067,17.067h68.267c9.422,0,17.067-7.639,17.067-17.067V102.4C512,97.872,510.2,93.533,507,90.333z
			 M51.2,392.533c-9.425,0-17.067-7.641-17.067-17.067S41.775,358.4,51.2,358.4s17.067,7.641,17.067,17.067
			S60.625,392.533,51.2,392.533z M51.2,187.733c-9.425,0-17.067-7.641-17.067-17.067S41.775,153.6,51.2,153.6
			s17.067,7.641,17.067,17.067S60.625,187.733,51.2,187.733z M136.533,358.4H102.4V187.733h34.133V358.4z M187.733,392.533
			c-9.425,0-17.067-7.641-17.067-17.067s7.641-17.067,17.067-17.067s17.067,7.641,17.067,17.067S197.159,392.533,187.733,392.533z
			 M187.733,187.733c-9.425,0-17.067-7.641-17.067-17.067s7.641-17.067,17.067-17.067s17.067,7.641,17.067,17.067
			S197.159,187.733,187.733,187.733z M273.067,358.4h-34.133V187.733h34.133V358.4z M324.267,392.533
			c-9.425,0-17.067-7.641-17.067-17.067s7.641-17.067,17.067-17.067s17.067,7.641,17.067,17.067S333.692,392.533,324.267,392.533z
			 M324.267,187.733c-9.425,0-17.067-7.641-17.067-17.067s7.641-17.067,17.067-17.067s17.067,7.641,17.067,17.067
			S333.692,187.733,324.267,187.733z M409.6,358.4h-34.133V187.733H409.6V358.4z M460.8,392.533
			c-9.425,0-17.067-7.641-17.067-17.067S451.375,358.4,460.8,358.4s17.067,7.641,17.067,17.067S470.225,392.533,460.8,392.533z
			 M460.8,187.733c-9.425,0-17.067-7.641-17.067-17.067S451.375,153.6,460.8,153.6s17.067,7.641,17.067,17.067
			S470.225,187.733,460.8,187.733z"/>
	</g>
</g>
<g>
</g>
<g>
</g>
<g>
</g>
<g>
</g>
<g>
</g>
<g>
</g>
<g>
</g>
<g>
</g>
<g>
</g>
<g>
</g>
<g>
</g>
<g>
</g>
<g>
</g>
<g>
</g>
<g>
</g>
</svg>
