<?xml version="1.0" encoding="iso-8859-1"?>
<!-- Generator: Adobe Illustrator 19.0.0, SVG Export Plug-In . SVG Version: 6.00 Build 0)  -->
<svg fill="#fff" version="1.1" id="Layer_1" xmlns="http://www.w3.org/2000/svg" xmlns:xlink="http://www.w3.org/1999/xlink" x="0px" y="0px"
	 viewBox="0 0 512 512" style="enable-background:new 0 0 512 512;" xml:space="preserve">
<g>
	<g>
		<path d="M463.752,52.378L328.966,0.538c-0.011-0.004-0.023-0.006-0.033-0.011c-0.183-0.07-0.372-0.121-0.559-0.177
			c-0.126-0.038-0.251-0.085-0.379-0.116c-0.183-0.045-0.37-0.071-0.555-0.103c-0.135-0.023-0.267-0.056-0.403-0.072
			c-0.193-0.024-0.387-0.027-0.582-0.037C326.326,0.016,326.198,0,326.07,0c-0.203,0-0.405,0.019-0.609,0.034
			c-0.12,0.009-0.239,0.009-0.359,0.023c-0.189,0.023-0.376,0.065-0.564,0.101c-0.133,0.026-0.266,0.042-0.397,0.074
			c-0.16,0.039-0.315,0.096-0.472,0.144s-0.315,0.089-0.469,0.149c-0.013,0.004-0.026,0.008-0.039,0.012L185.937,53.316L69.362,8.48
			c-7.162-2.755-15.21-1.805-21.535,2.538c-6.324,4.343-10.1,11.516-10.1,19.189V385.69c0,9.563,5.996,18.295,14.922,21.727
			l130.387,50.148c0.133,0.051,0.268,0.089,0.402,0.134c0.064,0.021,0.125,0.044,0.189,0.063c0.337,0.101,0.679,0.178,1.022,0.233
			c0.07,0.011,0.14,0.019,0.21,0.029c0.359,0.049,0.718,0.081,1.078,0.081h0.002c0.359,0,0.719-0.032,1.078-0.081
			c0.07-0.01,0.14-0.017,0.21-0.029c0.344-0.056,0.684-0.133,1.022-0.233c0.064-0.019,0.125-0.042,0.189-0.063
			c0.135-0.044,0.269-0.083,0.402-0.134l56.609-21.771c7.539,11.895,18.165,24.54,31.859,37.878
			c21.78,21.211,43.228,36.244,44.129,36.874c1.391,0.969,3.008,1.454,4.626,1.454c1.618,0,3.236-0.485,4.626-1.454
			c0.902-0.63,22.349-15.663,44.129-36.874c13.695-13.337,24.321-25.984,31.859-37.877l45.285,17.417
			c1.909,0.734,3.905,1.095,5.893,1.095c3.274,0,6.52-0.979,9.296-2.885c4.46-3.063,7.122-8.122,7.122-13.532V67.701
			C474.274,60.956,470.046,54.798,463.752,52.378z M177.852,438.249l-119.4-45.923c-2.726-1.049-4.558-3.716-4.558-6.637v-10.13
			l123.958,47.676V438.249z M177.852,405.913L53.894,358.237V52.191l123.958,47.677V405.913z M177.852,82.544L53.894,34.868v-4.661
			c0-2.379,1.124-4.514,3.085-5.862c1.215-0.834,2.598-1.26,4.002-1.26c0.862,0,1.731,0.16,2.576,0.485l114.295,43.96V82.544z
			 M334.148,19.854l123.801,47.615c0.095,0.037,0.157,0.129,0.157,0.232v14.844L334.148,34.868V19.854z M194.021,67.53
			l123.958-47.675v15.014L194.021,82.545V67.53z M194.021,438.249v-15.013l39.171-15.066c0.993,4.297,2.492,8.724,4.506,13.281
			L194.021,438.249z M326.063,493.963c-25.5-18.776-78.148-64.454-78.148-97.836c0-43.091,35.056-78.148,78.148-78.148
			c43.091,0,78.148,35.056,78.148,78.148C404.211,429.509,351.564,475.187,326.063,493.963z M457.997,438.093
			c-0.111,0.075-0.163,0.053-0.23,0.027l-43.338-16.669c2.013-4.557,3.513-8.984,4.506-13.281l39.17,15.066v14.652h0.001
			C458.106,437.961,458.106,438.019,457.997,438.093z M458.106,405.913L458.106,405.913l-37.849-14.557
			c-2.358-47.107-39.439-85.214-86.109-89.195v-50.751c0-4.465-3.62-8.084-8.084-8.084s-8.084,3.62-8.084,8.084v50.751
			c-46.67,3.981-83.749,42.089-86.109,89.195l-37.849,14.557V99.867l123.958-47.677v155.092c0,4.465,3.62,8.084,8.084,8.084
			s8.084-3.62,8.084-8.084V52.191l123.958,47.677V405.913z"/>
	</g>
</g>
<g>
	<g>
		<path d="M326.063,344.926c-28.231,0-51.2,22.969-51.2,51.2s22.969,51.2,51.2,51.2c28.231,0,51.2-22.969,51.2-51.2
			S354.296,344.926,326.063,344.926z M326.063,431.158c-19.317,0-35.032-15.716-35.032-35.032s15.715-35.032,35.032-35.032
			c19.317,0,35.032,15.716,35.032,35.032S345.38,431.158,326.063,431.158z"/>
	</g>
</g>
<g>
</g>
<g>
</g>
<g>
</g>
<g>
</g>
<g>
</g>
<g>
</g>
<g>
</g>
<g>
</g>
<g>
</g>
<g>
</g>
<g>
</g>
<g>
</g>
<g>
</g>
<g>
</g>
<g>
</g>
</svg>
