<?xml version="1.0" encoding="iso-8859-1"?>
<!-- Generator: Adobe Illustrator 19.0.0, SVG Export Plug-In . SVG Version: 6.00 Build 0)  -->
<svg fill="#fff" version="1.1" id="Capa_1" xmlns="http://www.w3.org/2000/svg" xmlns:xlink="http://www.w3.org/1999/xlink" x="0px" y="0px"
	 viewBox="0 0 512 512" style="enable-background:new 0 0 512 512;" xml:space="preserve">
<g>
	<g>
		<g>
			<path d="M256,0C114.848,0,0,114.848,0,256s114.848,256,256,256s256-114.848,256-256S397.152,0,256,0z M256,490.667
				c-107.211,0-197.792-72.288-225.717-170.667h151.808c17.771,26.837,45.003,42.667,73.909,42.667
				c28.907,0,56.139-15.829,73.909-42.667h151.808C453.792,418.379,363.211,490.667,256,490.667z M323.989,298.667
				c-3.786-0.002-7.29,2.004-9.205,5.269c-13.717,23.413-35.691,37.397-58.784,37.397s-45.067-13.984-58.784-37.397
				c-1.916-3.266-5.419-5.271-9.205-5.269H25.291c-2.617-14.072-3.941-28.354-3.957-42.667
				C21.333,126.603,126.603,21.333,256,21.333S490.667,126.603,490.667,256c-0.016,14.313-1.341,28.595-3.957,42.667H323.989z"/>
			<path d="M333.792,152.459l-63.509,63.509c-4.573-1.698-9.405-2.589-14.283-2.635c-23.564,0-42.667,19.102-42.667,42.667
				s19.102,42.667,42.667,42.667c23.44,0.119,42.539-18.786,42.658-42.226c0.053-10.359-3.685-20.38-10.509-28.174l60.725-60.725
				c4.093-4.237,3.976-10.99-0.262-15.083C344.479,148.466,337.926,148.466,333.792,152.459z M256,277.333
				c-11.782,0-21.333-9.551-21.333-21.333c0-11.782,9.551-21.333,21.333-21.333c11.782,0,21.333,9.551,21.333,21.333
				C277.333,267.782,267.782,277.333,256,277.333z"/>
			<path d="M256,96c5.891,0,10.667-4.776,10.667-10.667V42.667C266.667,36.776,261.891,32,256,32
				c-5.891,0-10.667,4.776-10.667,10.667v42.667C245.333,91.224,250.109,96,256,96z"/>
			<path d="M469.333,245.333h-42.667c-5.891,0-10.667,4.776-10.667,10.667c0,5.891,4.776,10.667,10.667,10.667h42.667
				c5.891,0,10.667-4.776,10.667-10.667C480,250.109,475.224,245.333,469.333,245.333z"/>
			<path d="M85.333,245.333H42.667C36.776,245.333,32,250.109,32,256c0,5.891,4.776,10.667,10.667,10.667h42.667
				C91.224,266.667,96,261.891,96,256C96,250.109,91.224,245.333,85.333,245.333z"/>
			<path d="M178.912,101.152l-18.133-31.477c-2.979-5.082-9.514-6.787-14.596-3.808c-5.035,2.951-6.763,9.401-3.878,14.475
				l18.133,31.477c2.912,5.121,9.424,6.912,14.545,4c5.121-2.912,6.912-9.424,4-14.545
				C178.959,101.233,178.936,101.192,178.912,101.152z"/>
			<path d="M446.336,146.234c-2.912-5.121-9.424-6.912-14.545-4c-0.041,0.023-0.081,0.047-0.122,0.07l-31.477,18.133
				c-5.102,2.946-6.849,9.47-3.904,14.571c1.905,3.3,5.426,5.333,9.237,5.333c1.872,0,3.712-0.493,5.333-1.429l31.477-18.133
				C447.457,157.867,449.248,151.355,446.336,146.234z"/>
			<path d="M111.942,160.477c-0.041-0.024-0.082-0.048-0.124-0.071l-31.477-18.133c-5.082-2.979-11.617-1.274-14.596,3.808
				c-2.979,5.082-1.274,11.617,3.808,14.596c0.04,0.024,0.081,0.047,0.122,0.07v0l31.477,18.133
				c5.082,2.98,11.617,1.275,14.597-3.807C118.728,169.991,117.024,163.456,111.942,160.477z"/>
			<path d="M365.696,65.807c-5.073-2.885-11.523-1.157-14.475,3.878l-18.133,31.477c-2.945,5.102-1.198,11.625,3.904,14.571
				c5.102,2.945,11.625,1.198,14.571-3.904l18.133-31.477C372.608,75.231,370.817,68.719,365.696,65.807z"/>
		</g>
	</g>
</g>
<g>
</g>
<g>
</g>
<g>
</g>
<g>
</g>
<g>
</g>
<g>
</g>
<g>
</g>
<g>
</g>
<g>
</g>
<g>
</g>
<g>
</g>
<g>
</g>
<g>
</g>
<g>
</g>
<g>
</g>
</svg>
