<?xml version="1.0"?>
<svg xmlns="http://www.w3.org/2000/svg" id="Layer" enable-background="new 0 0 64 64" height="512px" viewBox="0 0 64 64" width="512px"><g><path d="m47 33h-28c-3.309 0-6-2.691-6-6s2.691-6 6-6h31.172l-2.586 2.586c-.781.781-.781 2.047 0 2.828.391.391.902.586 1.414.586s1.023-.195 1.414-.586l6-6c.781-.781.781-2.047 0-2.828l-6-6c-.781-.781-2.047-.781-2.828 0s-.781 2.047 0 2.828l2.586 2.586h-31.172c-5.514 0-10 4.486-10 10s4.486 10 10 10h28c3.309 0 6 2.691 6 6s-2.691 6-6 6h-36c-1.104 0-2 .896-2 2s.896 2 2 2h36c5.514 0 10-4.486 10-10s-4.486-10-10-10z" data-original="#000000" class="active-path" data-old_color="#000000" fill="#FFFFFF"/></g> </svg>
