<svg height="512" fill="#fff" viewBox="0 0 60 57" width="512" xmlns="http://www.w3.org/2000/svg"><g id="002---Car-Sensors" transform="translate(-1)"><path id="Shape" d="m43 29.153-5 .714v1.133h5z"/><path id="Shape" d="m24.001 29.867-5.001-.714v1.847h5.001z"/><path id="Shape" d="m14 28v6c.0032948 1.1032019.8967981 1.9967052 2 2h30c1.1032019-.0032948 1.9967052-.8967981 2-2v-6c0-2.209139-1.790861-4-4-4h-26c-2.209139 0-4 1.790861-4 4zm22 1.87c.0048651-.9945078.7359459-1.8361008 1.72-1.98l5-.72c.5735242-.081092 1.1540365.0904442 1.5913733.4702368.4373369.3797925.6885389.9305345.6886267 1.5097632v1.85c-.0032948 1.1032019-.8967981 1.9967052-2 2h-5c-1.1032019-.0032948-1.9967052-.8967981-2-2zm-7-2.87h4c.5522847 0 1 .4477153 1 1s-.4477153 1-1 1h-4c-.5522847 0-1-.4477153-1-1s.4477153-1 1-1zm0 4h4c.5522847 0 1 .4477153 1 1s-.4477153 1-1 1h-4c-.5522847 0-1-.4477153-1-1s.4477153-1 1-1zm-12-1.85c.0000878-.5792287.2512898-1.1299707.6886267-1.5097632.4373368-.3797926 1.0178491-.5513288 1.5913733-.4702368l5 .72c.9840541.1438992 1.7151349.9854922 1.72 1.98v1.13c-.0032948 1.1032019-.8967981 1.9967052-2 2h-5c-1.1032019-.0032948-1.9967052-.8967981-2-2z"/><path id="Shape" d="m41.04 11.63c-.6151221-2.14677866-2.5768349-3.62723973-4.81-3.63h-10.46c-2.2331651.00276027-4.1948779 1.48322134-4.81 3.63l-2.96 10.37h26zm-17.04 3.37c-.4062651.0023626-.77358-.2413038-.929371-.6165185-.1557909-.3752147-.0690889-.807391.219371-1.0934815l2-2c.2536586-.2536586.623374-.3527235.969878-.259878.3465041.0928454.6171546.3634959.71.71.0928455.346504-.0062194.7162194-.259878.969878-2.122 2.122-2.157 2.29-2.71 2.29zm8.71-2.29-6 6c-.190164.1849909-.4447023.2889572-.71.29-.4062651.0023626-.77358-.2413038-.929371-.6165185-.1557909-.3752147-.0690889-.807391.219371-1.0934815l6-6c.3921222-.3921222 1.0278778-.3921222 1.42 0s.3921222 1.0278778 0 1.42z"/><path id="Shape" d="m15 22h.92l1.14-4h-2.06c-1.1045695 0-2 .8954305-2 2s.8954305 2 2 2z"/><path id="Shape" d="m46.08 22h.92c.5305905.0028231 1.0395388-.2101411 1.41-.59.5684616-.5718399.7379389-1.4291108.4298346-2.1742425s-1.0335232-1.2323721-1.8398346-1.2357575h-2.06z"/><path id="Shape" d="m2.419 14.871c.31575773.0001492.61303678-.148843.80189224-.4018975.18885547-.2530545.24709876-.58044.15710776-.8831025-1.03349202-3.4835469.12691408-7.24695292 2.94267461-9.54362385 2.81576053-2.29667094 6.73560069-2.67696034 9.94032539-.96437615.313816.17499152.6973901.16817151 1.0047869-.01786528.3073968-.1860368.4913564-.52268868.4818892-.88187228-.0094673-.35918359-.2109059-.68567726-.5276761-.85526244-3.9147166-2.11665289-8.7193615-1.66447561-12.17043097 1.14539002-3.45106947 2.80986563-4.8677654 7.42311282-3.58856903 11.68560998.12533263.4247679.51512782.7165039.958.717z"/><path id="Shape" d="m14.382 6.594c.4882197.25846925 1.0935307.0722197 1.352-.41600001.2584692-.48821971.0722197-1.09353072-.416-1.35199999-2.4936771-1.32784094-5.54050828-1.03045109-7.73035429.75453109-2.18984602 1.78498218-3.09543693 4.70928141-2.29764571 7.41946891.1613054.5213816.71085696.8171377 1.23486361.6645754.52400664-.1525624.82891301-.6970903.68513639-1.2235754-.57516254-1.9391245.07109696-4.03394356 1.63877032-5.31199517 1.56767338-1.27805161 3.74973768-1.48903417 5.53322968-.53500483z"/><path id="Shape" d="m12.478 10.122c.3149296.168808.6959946.1567801.9996514-.031553.3036568-.18833303.4837728-.52435894.4725-.88149999s-.2122218-.68113902-.5271514-.84994701c-1.0719869-.5726562-2.3835646-.44196308-3.3214692.33097022-.93790459.77293329-1.31680296 2.03537258-.9595308 3.19702978.11325319.3394023.39897243.5926031.74953005.6642241.35055765.071621.71269555-.0492187.95000005-.317.2373044-.2677813.3137231-.6418218.2004699-.9812241-.0975221-.3830993.0397947-.7876915.3503544-1.0322897.3105597-.24459818.736064-.28328638 1.0856456-.0987103z"/><path id="Shape" d="m50 0c-1.8231383-.00150004-3.6176611.45331867-5.22 1.323-.3167702.16958518-.5182088.49607885-.5276761.85526244-.0094672.3591836.1744924.69583548.4818892.88187228.3073968.18603679.6909709.1928568 1.0047869.01786528 3.2047247-1.71258419 7.1245649-1.33229479 9.9403254.96437615 2.8157605 2.29667093 3.9761666 6.06007695 2.9426746 9.54362385-.1118357.3455656-.0275065.7246006.2202932.9901531.2477996.2655525.6201034.3758648.9725692.2881687.3524659-.0876961.629669-.3596104.7241376-.7103218.9917253-3.3297947.3537163-6.9323331-1.721237-9.71901951-2.0749532-2.78668641-5.3434238-4.43059579-8.817763-4.43498049z"/><path id="Shape" d="m55.471 13.68c.5298768.1539956 1.0843477-.1503145 1.239-.68.7977912-2.7101875-.1077997-5.63448673-2.2976457-7.41946891s-5.2366772-2.08237203-7.7303543-.75453109c-.4882197.25846927-.6744692.86378028-.416 1.35199999.2584693.48821971.8637803.67446926 1.352.41600001 1.783492-.95402934 3.9655563-.74304678 5.5332297.53500483 1.5676733 1.27805161 2.2139328 3.37287067 1.6387703 5.31199517-.1539214.530175.1509111 1.0847822.681 1.239z"/><path id="Shape" d="m51.593 12.518c.5235491.1748338 1.0897438-.1075922 1.265-.631.3572722-1.1616572-.0216262-2.42409649-.9595308-3.19702978-.9379046-.7729333-2.2494823-.90362642-3.3214692-.33097022-.3149296.16880799-.5158786.49280596-.5271514.849947-.0112728.35714105.1688432.69316695.4725.8815.3036568.1883331.6847218.200361.9996514.031553.3498537-.18707171.7772128-.14963513 1.0892127.0954148.312.24505.4496334.6513679.3507873 1.0355852-.1748338.5235491.1075922 1.0897438.631 1.265z"/><path id="Shape" d="m60 42h-14.277c.369-.634.277-.825.277-4h-5c0 3.111-.093 3.364.277 4h-20.554c.369-.634.277-.825.277-4h-5c0 3.111-.093 3.364.277 4h-14.277c-.55228475 0-1 .4477153-1 1s.44771525 1 1 1h58c.5522847 0 1-.4477153 1-1s-.4477153-1-1-1z"/><path id="Shape" d="m10.1 51.458c-.11796258.238576-.13595453.5143337-.0499921.7662149.0859625.2518812.2687868.4591039.5079921.5757851 11.37 5.606 29.509 5.609 40.884 0 .4970562-.2441099.7021098-.8449437.4579999-1.342-.2441098-.4970562-.8449436-.7021098-1.3419999-.458-10.815 5.333-28.3 5.334-39.116 0-.238576-.1179626-.5143337-.1359545-.7662149-.0499921-.2518812.0859625-.4591039.2687868-.5757851.5079921z"/><path id="Shape" d="m15.821 48.626c-.2452001.4948481-.0428363 1.0947761.452 1.34 8.176 4.047 21.275 4.049 29.454 0 .3226931-.1571307.5364279-.4751467.5600413-.8332854.0236134-.3581386-.1465168-.7014642-.4457856-.8996032s-.6817708-.2206983-1.0022557-.0591114c-7.608 3.766-20.046 3.777-27.678 0-.4948481-.2452001-1.0947761-.0428363-1.34.452z"/><path id="Shape" d="m40.012 47.135c.3280274-.1546081.546648-.4746861.5713361-.8364819.0246881-.3617957-.1484257-.7086048-.45241-.9063398-.3039844-.1977351-.6911958-.2154051-1.0119261-.0461783-4.415 2.205-11.811 2.211-16.238 0-.3207303-.1692268-.7079417-.1515568-1.0119261.0461783-.3039843.197735-.4770981.5445441-.45241.9063398.0246881.3617958.2433087.6818738.5713361.8364819 4.983 2.489 13.042 2.488 18.024 0z"/></g></svg>
