<?xml version="1.0" encoding="iso-8859-1"?>
<!-- Generator: Adobe Illustrator 18.0.0, SVG Export Plug-In . SVG Version: 6.00 Build 0)  -->
<!DOCTYPE svg PUBLIC "-//W3C//DTD SVG 1.1//EN" "http://www.w3.org/Graphics/SVG/1.1/DTD/svg11.dtd">
<svg version="1.1" id="Capa_1" xmlns="http://www.w3.org/2000/svg" xmlns:xlink="http://www.w3.org/1999/xlink" x="0px" y="0px"
	 viewBox="0 0 485.986 485.986" style="enable-background:new 0 0 485.986 485.986;" xml:space="preserve">
<g>
	<path d="M462.397,306.872c7.343,0,13.316-5.974,13.316-13.316v-49.36c0-7.342-5.974-13.316-13.316-13.316
		c-7.343,0-13.316,5.974-13.316,13.316v49.36C449.08,300.898,455.054,306.872,462.397,306.872z M457.58,244.195
		c0-2.655,2.16-4.816,4.816-4.816c2.656,0,4.816,2.161,4.816,4.816v49.36c0,2.656-2.16,4.816-4.816,4.816
		c-2.656,0-4.816-2.161-4.816-4.816V244.195z"/>
	<path d="M462.397,359.82c-7.343,0-13.316,5.974-13.316,13.316v49.36c0,7.342,5.974,13.316,13.316,13.316
		c7.343,0,13.316-5.974,13.316-13.316v-49.36C475.713,365.794,469.739,359.82,462.397,359.82z M467.213,422.497
		c0,2.655-2.16,4.816-4.816,4.816c-2.656,0-4.816-2.161-4.816-4.816v-49.36c0-2.656,2.16-4.816,4.816-4.816
		c2.656,0,4.816,2.161,4.816,4.816V422.497z"/>
	<path d="M244,410.189h-47.346c-2.348,0-4.25,1.903-4.25,4.25c0,2.347,1.902,4.25,4.25,4.25H244c2.348,0,4.25-1.903,4.25-4.25
		C248.25,412.092,246.348,410.189,244,410.189z"/>
	<path d="M86.855,279.753c-29.005,0-52.603,23.598-52.603,52.603c0,29.005,23.598,52.603,52.603,52.603
		c29.006,0,52.604-23.598,52.604-52.603C139.459,303.351,115.861,279.753,86.855,279.753z M86.855,376.458
		c-24.318,0-44.103-19.784-44.103-44.103c0-24.318,19.784-44.103,44.103-44.103c24.318,0,44.104,19.785,44.104,44.103
		C130.959,356.674,111.174,376.458,86.855,376.458z"/>
	<path d="M86.855,303.165c-16.096,0-29.19,13.095-29.19,29.19s13.095,29.191,29.19,29.191s29.19-13.095,29.19-29.191
		S102.951,303.165,86.855,303.165z M86.855,353.047c-11.409,0-20.69-9.282-20.69-20.691c0-11.409,9.281-20.69,20.69-20.69
		c11.409,0,20.69,9.282,20.69,20.69C107.546,343.765,98.265,353.047,86.855,353.047z"/>
	<path d="M220.833,303.165c-16.096,0-29.19,13.095-29.19,29.19s13.095,29.191,29.19,29.191s29.19-13.095,29.19-29.191
		S236.929,303.165,220.833,303.165z M220.833,353.047c-11.409,0-20.69-9.282-20.69-20.691c0-11.409,9.281-20.69,20.69-20.69
		c11.409,0,20.69,9.282,20.69,20.69C241.523,343.765,232.242,353.047,220.833,353.047z"/>
	<path d="M354.81,303.165c-16.097,0-29.191,13.095-29.191,29.19s13.095,29.191,29.191,29.191c16.096,0,29.19-13.095,29.19-29.191
		S370.906,303.165,354.81,303.165z M354.81,353.047c-11.409,0-20.691-9.282-20.691-20.691c0-11.409,9.282-20.69,20.691-20.69
		c11.409,0,20.69,9.282,20.69,20.69C375.501,343.765,366.22,353.047,354.81,353.047z"/>
	<path d="M220.833,279.753c-29.005,0-52.603,23.598-52.603,52.603c0,29.005,23.598,52.603,52.603,52.603
		s52.602-23.598,52.602-52.603C273.435,303.351,249.838,279.753,220.833,279.753z M220.833,376.459
		c-24.318,0-44.103-19.785-44.103-44.103c0-24.318,19.784-44.103,44.103-44.103c24.318,0,44.102,19.784,44.102,44.103
		C264.935,356.674,245.151,376.459,220.833,376.459z"/>
	<path d="M354.81,279.753c-29.005,0-52.602,23.598-52.602,52.603c0,29.005,23.598,52.603,52.602,52.603
		c29.005,0,52.602-23.598,52.602-52.603C407.412,303.351,383.815,279.753,354.81,279.753z M354.81,376.459
		c-24.318,0-44.102-19.785-44.102-44.103c0-24.318,19.784-44.103,44.102-44.103c24.317,0,44.102,19.784,44.102,44.103
		C398.912,356.674,379.128,376.459,354.81,376.459z"/>
	<path d="M466.625,310.981h-23.1c-0.954-54.438-45.528-98.431-100.19-98.431h-3.979v-15.398c0-10.675-8.685-19.36-19.359-19.36
		h-9.255v-24.064c0-10.675-8.685-19.36-19.36-19.36h-40.794c-10.676,0-19.36,8.685-19.36,19.36v24.064h-39.318
		c0.104-0.367,0.177-0.747,0.177-1.147l0.002-88.68c0-29.853-24.287-54.14-54.14-54.14h-27.288c-2.348,0-4.25,1.903-4.25,4.25
		v32.193c0,2.347,1.902,4.25,4.25,4.25h27.288c7.415,0,13.448,6.032,13.448,13.447l-0.004,88.68c0,0.4,0.073,0.779,0.177,1.147
		h-28.017c-10.676,0-19.36,8.684-19.36,19.36v15.398h-3.979C44.955,212.55,0,257.505,0,312.762v39.188
		c0,55.257,44.955,100.212,100.213,100.212h243.122c54.662,0,99.235-43.992,100.19-98.43h23.1c10.676,0,19.361-8.685,19.361-19.36
		v-4.029C485.986,319.667,477.301,310.981,466.625,310.981z M239.727,153.729c0-5.988,4.872-10.86,10.86-10.86h40.794
		c5.988,0,10.86,4.872,10.86,10.86v24.064h-62.515V153.729z M137.947,66.019h-23.038V42.325h23.038
		c25.166,0,45.64,20.474,45.64,45.64l-0.002,88.68c0,0.4,0.073,0.779,0.177,1.147h-7.437v-54.688c0-2.347-1.902-4.25-4.25-4.25
		c-2.348,0-4.25,1.903-4.25,4.25v54.688h-8.11c0.104-0.367,0.177-0.747,0.177-1.147l0.004-88.68
		C159.895,75.864,150.05,66.019,137.947,66.019z M112.691,197.152c0-5.988,4.872-10.86,10.86-10.86h196.444
		c5.988,0,10.859,4.872,10.859,10.86v15.398H112.691V197.152z M435.048,351.95c0,22.568-8.198,43.253-21.768,59.247l-139.899,0
		c-2.348,0-4.25,1.903-4.25,4.25c0,2.347,1.902,4.25,4.25,4.25l131.707,0c-16.31,14.879-37.99,23.964-61.753,23.964H100.213
		c-50.57,0-91.713-41.142-91.713-91.712v-39.188c0-27.129,11.845-51.54,30.629-68.346H358.84c2.348,0,4.25-1.903,4.25-4.25
		s-1.902-4.25-4.25-4.25H50.214c14.391-9.396,31.567-14.866,49.999-14.866h243.122c50.57,0.001,91.713,41.142,91.713,91.712V351.95z
		 M477.486,334.371c0,5.988-4.872,10.86-10.861,10.86h-23.077v-25.749h23.077c5.989,0,10.861,4.872,10.861,10.86V334.371z"/>
</g>
<g>
</g>
<g>
</g>
<g>
</g>
<g>
</g>
<g>
</g>
<g>
</g>
<g>
</g>
<g>
</g>
<g>
</g>
<g>
</g>
<g>
</g>
<g>
</g>
<g>
</g>
<g>
</g>
<g>
</g>
</svg>
