<?xml version="1.0" encoding="iso-8859-1"?>
<!-- Generator: Adobe Illustrator 18.0.0, SVG Export Plug-In . SVG Version: 6.00 Build 0)  -->
<!DOCTYPE svg PUBLIC "-//W3C//DTD SVG 1.1//EN" "http://www.w3.org/Graphics/SVG/1.1/DTD/svg11.dtd">
<svg version="1.1" id="Capa_1" xmlns="http://www.w3.org/2000/svg" xmlns:xlink="http://www.w3.org/1999/xlink" x="0px" y="0px"
	 viewBox="0 0 371 371" style="enable-background:new 0 0 371 371;" xml:space="preserve">
<g>
	<path d="M185.5,238.499c-13.785,0-25.001,11.215-25.001,25.001c0,13.785,11.216,25,25.001,25s25.001-11.215,25.001-25
		C210.501,249.714,199.285,238.499,185.5,238.499z M185.5,277.5c-7.72,0-14.001-6.281-14.001-14c0-7.72,6.281-14.001,14.001-14.001
		s14.001,6.281,14.001,14.001C199.501,271.22,193.22,277.5,185.5,277.5z"/>
	<path d="M366.329,197.894c-4.9-6.415-12.341-10.094-20.412-10.094c-8.073,0-15.513,3.679-20.413,10.094
		c-2.801,3.668-7.055,5.771-11.67,5.771c-4.616,0-8.87-2.104-11.672-5.771c-4.9-6.415-12.341-10.094-20.412-10.094
		c-5.624,0-10.938,1.79-15.303,5.042c-14.24-16.293-33.307-28.261-54.948-33.656V129h46.3c3.037,0,5.5-2.462,5.5-5.5
		s-2.463-5.5-5.5-5.5h-46.3V92.06c0-7.8-4.98-14.442-11.92-16.962V29.5h-11V74h-6.199V10.48c0-5.779-4.701-10.48-10.48-10.48h-13.02
		v11h12.5v64.112c-6.92,2.532-11.881,9.162-11.881,16.948V118h-46.3c-3.037,0-5.5,2.462-5.5,5.5s2.463,5.5,5.5,5.5h46.3v30.186
		c-21.64,5.396-40.707,17.363-54.947,33.656c-4.365-3.252-9.679-5.043-15.302-5.043c-8.073,0-15.513,3.679-20.413,10.094
		c-2.801,3.668-7.055,5.771-11.67,5.771c-4.616,0-8.87-2.104-11.671-5.771c-4.9-6.415-12.34-10.094-20.413-10.094
		c-8.071,0-15.512,3.679-20.412,10.094c-1.844,2.414-1.382,5.866,1.032,7.709c2.416,1.845,5.866,1.382,7.71-1.032
		c2.801-3.668,7.055-5.771,11.67-5.771c4.616,0,8.87,2.104,11.671,5.771c4.9,6.415,12.34,10.094,20.413,10.094
		c8.071,0,15.512-3.679,20.412-10.094c2.801-3.668,7.055-5.771,11.67-5.771c3.103,0,6.03,0.97,8.475,2.707
		c-11.243,15.872-18.288,34.913-19.522,55.496H39.203c-3.037,0-5.5,2.462-5.5,5.5s2.463,5.5,5.5,5.5h38.898
		C80.471,325.198,127.734,371,185.5,371c57.766,0,105.029-45.802,107.399-102.997h38.904c3.037,0,5.5-2.462,5.5-5.5
		s-2.463-5.5-5.5-5.5h-39.005c-1.233-20.583-8.279-39.624-19.522-55.497c2.444-1.737,5.371-2.706,8.473-2.706
		c4.616,0,8.87,2.104,11.672,5.771c4.9,6.415,12.341,10.094,20.412,10.094c8.073,0,15.513-3.679,20.413-10.094
		c2.801-3.668,7.055-5.771,11.671-5.771c4.615,0,8.869,2.104,11.67,5.771c1.846,2.414,5.296,2.876,7.71,1.032
		C367.711,203.76,368.173,200.308,366.329,197.894z M170.499,106.5h7.75c3.037,0,5.5-2.462,5.5-5.5s-2.463-5.5-5.5-5.5h-7.75v-3.44
		c0-3.893,3.167-7.06,7.061-7.06h15.88c3.893,0,7.06,3.167,7.06,7.06v3.44h-7.75c-3.037,0-5.5,2.462-5.5,5.5s2.463,5.5,5.5,5.5h7.75
		v50.551C195.596,156.364,190.59,156,185.5,156c-5.091,0-10.097,0.364-15.001,1.052V106.5z M185.5,167
		c29.203,0,55.416,13.041,73.126,33.603c-2.535,1.965-5.649,3.062-8.959,3.062c-4.616,0-8.87-2.104-11.671-5.771
		c-4.9-6.415-12.34-10.093-20.412-10.094c0,0,0,0-0.001,0c-8.071,0-15.512,3.679-20.413,10.094
		c-2.801,3.668-7.055,5.771-11.67,5.771c-4.616,0-8.87-2.104-11.671-5.771c-4.9-6.415-12.341-10.094-20.412-10.094
		c-8.073,0-15.513,3.679-20.413,10.094c-2.801,3.668-7.055,5.771-11.67,5.771c-3.31,0-6.424-1.098-8.96-3.062
		C130.084,180.041,156.297,167,185.5,167z M185.5,360c-53.21,0-96.5-43.29-96.5-96.5c0-20.059,6.154-38.706,16.67-54.157
		c4.432,3.427,9.883,5.323,15.663,5.323c8.073,0,15.513-3.679,20.413-10.094c2.801-3.668,7.055-5.771,11.671-5.771
		c4.615,0,8.869,2.104,11.67,5.771c4.9,6.415,12.34,10.093,20.412,10.094c0,0,0,0,0.001,0c8.071,0,15.512-3.679,20.413-10.094
		c2.801-3.668,7.055-5.771,11.67-5.771c4.616,0,8.87,2.104,11.671,5.771c4.9,6.415,12.34,10.094,20.413,10.094
		c5.78,0,11.231-1.896,15.663-5.323C275.846,224.794,282,243.441,282,263.5C282,316.71,238.71,360,185.5,360z"/>
</g>
<g>
</g>
<g>
</g>
<g>
</g>
<g>
</g>
<g>
</g>
<g>
</g>
<g>
</g>
<g>
</g>
<g>
</g>
<g>
</g>
<g>
</g>
<g>
</g>
<g>
</g>
<g>
</g>
<g>
</g>
</svg>
